<svg width="60" height="60" viewBox="0 0 60 60" fill="none" xmlns="http://www.w3.org/2000/svg">
<path d="M59.6565 15.8985L44.1015 0.343126C43.6439 -0.114375 42.9021 -0.114375 42.4441 0.343126L38.3015 4.48548C38.0818 4.70526 37.9583 5.00333 37.9583 5.31412C37.9583 5.6249 38.0818 5.92297 38.3015 6.14275L43.2226 11.0637L38.5637 15.7226L31.3926 8.55154C30.9349 8.09393 30.1929 8.09404 29.7352 8.55154L24.9768 13.31C24.7571 13.5297 24.6336 13.8278 24.6336 14.1386C24.6336 14.4494 24.7571 14.7474 24.9768 14.9672L26.488 16.4785L7.06511 35.9021C5.28034 37.6869 5.28034 40.5912 7.06511 42.3763L8.55632 43.8675L5.82209 46.6017C5.71326 46.7105 5.62693 46.8397 5.56803 46.9819C5.50913 47.1241 5.47882 47.2765 5.47882 47.4304C5.47882 47.5843 5.50913 47.7366 5.56803 47.8788C5.62693 48.021 5.71326 48.1502 5.82209 48.259L7.9528 50.3898L0.343214 57.9993C-0.114405 58.4569 -0.114405 59.1989 0.343214 59.6567C0.572082 59.8855 0.871965 59.9999 1.17185 59.9999C1.47173 59.9999 1.77173 59.8855 2.00048 59.6567L9.61019 52.047L11.741 54.1778C11.9608 54.3975 12.2589 54.521 12.5697 54.521C12.8804 54.521 13.1785 54.3975 13.3983 54.1778L16.1325 51.4436L17.6237 52.9348C18.4883 53.7994 19.6381 54.2755 20.8608 54.2755C22.0835 54.2755 23.2333 53.7994 24.0979 52.9348L43.5211 33.5117L45.0323 35.023C45.141 35.132 45.2702 35.2184 45.4124 35.2773C45.5546 35.3362 45.707 35.3664 45.8609 35.3662C46.1609 35.3662 46.4607 35.2518 46.6896 35.023L51.4479 30.2646C51.6676 30.0448 51.7911 29.7467 51.7911 29.4359C51.7911 29.1251 51.6676 28.8271 51.4479 28.6073L44.2768 21.4362L48.9357 16.7773L53.8567 21.6983C53.9654 21.8072 54.0945 21.8937 54.2367 21.9526C54.3789 22.0115 54.5314 22.0417 54.6853 22.0415C54.9853 22.0415 55.2851 21.9271 55.5139 21.6983L59.6564 17.5558C60.1143 17.0983 60.1143 16.3563 59.6565 15.8985ZM24.7359 21.546L30.1577 26.9678C30.2664 27.0768 30.3955 27.1633 30.5377 27.2222C30.6799 27.2811 30.8324 27.3113 30.9863 27.3111C31.2863 27.3111 31.5861 27.1967 31.8149 26.9678C32.2726 26.5102 32.2726 25.7682 31.8149 25.3106L26.3931 19.8888L28.1454 18.1365L38.2341 28.2252L32.8748 33.5845L22.786 23.4957L24.7359 21.546ZM12.5697 51.6918L8.308 47.4302L10.2137 45.5248L14.4751 49.7862L12.5697 51.6918ZM22.4404 51.2774C21.5694 52.1483 20.1521 52.1485 19.2811 51.2774L8.72238 40.7188C7.85132 39.8477 7.85132 38.4303 8.72238 37.5594L10.3916 35.8902L13.2772 38.7758C13.5061 39.0047 13.806 39.119 14.1059 39.119C14.4057 39.119 14.7058 39.0047 14.9345 38.7758C15.3921 38.3182 15.3921 37.5762 14.9345 37.1184L12.0489 34.2328L13.9774 32.3041L19.3991 37.7258C19.628 37.9547 19.9279 38.069 20.2278 38.069C20.5276 38.069 20.8276 37.9545 21.0564 37.7258C21.514 37.2682 21.514 36.5261 21.0564 36.0685L15.6346 30.6467L17.5633 28.718L20.4489 31.6037C20.6778 31.8325 20.9776 31.9469 21.2775 31.9469C21.5774 31.9469 21.8774 31.8325 22.1062 31.6037C22.5638 31.1461 22.5638 30.404 22.1062 29.9463L19.2205 27.0607L21.1281 25.1531L31.2169 35.2418L23.5961 42.8627C23.1385 43.3203 23.1385 44.0624 23.5961 44.5201C23.825 44.749 24.1248 44.8634 24.4247 44.8634C24.7246 44.8634 25.0246 44.7489 25.2534 44.5201L32.8742 36.8992L34.846 38.871L22.4404 51.2774ZM36.5042 37.2138L34.5324 35.2418L39.8918 29.8823L41.8636 31.8541L36.5042 37.2138ZM48.962 29.4359L45.8609 32.537L27.4628 14.1389L30.5638 11.0379L48.962 29.4359ZM42.6196 19.779L40.2209 17.3802L44.8799 12.7212L47.2786 15.1199L42.6196 19.779ZM54.6857 19.2124L40.7877 5.31423L43.2729 2.82903L57.1709 16.727L54.6857 19.2124Z" fill="#F1CDB3"/>
<path d="M22.3157 46.7208C22.3016 46.6458 22.2782 46.572 22.2489 46.5017C22.2198 46.4307 22.1836 46.3628 22.1411 46.299C22.0989 46.2345 22.0497 46.1747 21.9958 46.1208C21.9419 46.0669 21.8821 46.0177 21.8176 45.9755C21.7538 45.933 21.6859 45.8968 21.6149 45.8677C21.5446 45.8384 21.4708 45.8162 21.3958 45.8009C21.2449 45.7704 21.0895 45.7704 20.9387 45.8009C20.8637 45.8162 20.7899 45.8384 20.7196 45.8677C20.6481 45.897 20.5801 45.9333 20.5168 45.9755C20.4524 46.0177 20.3926 46.0669 20.3387 46.1208C20.2848 46.1747 20.2356 46.2345 20.1934 46.299C20.1512 46.3621 20.1149 46.4302 20.0856 46.5017C20.0563 46.572 20.0329 46.6458 20.0188 46.7208C20.0036 46.7958 19.9954 46.8732 19.9954 46.9494C19.9954 47.0255 20.0036 47.1029 20.0188 47.179C20.0329 47.2529 20.0563 47.3267 20.0856 47.3982C20.1149 47.4685 20.1512 47.5365 20.1934 47.5998C20.2356 47.6642 20.2848 47.724 20.3387 47.7779C20.4475 47.8872 20.5769 47.9736 20.7196 48.0322C20.8614 48.0914 21.0136 48.1217 21.1672 48.1212C21.3209 48.1217 21.4731 48.0914 21.6149 48.0322C21.7575 47.9736 21.887 47.8872 21.9958 47.7779C22.0497 47.724 22.0989 47.6642 22.1411 47.5998C22.1833 47.5365 22.2196 47.4685 22.2489 47.3982C22.2782 47.3267 22.3016 47.2529 22.3157 47.179C22.3309 47.1029 22.3391 47.0255 22.3391 46.9494C22.3391 46.8732 22.3309 46.7958 22.3157 46.7208Z" fill="#F1CDB3"/>
</svg>
