<svg width="182" height="54" viewBox="0 0 182 54" fill="none" xmlns="http://www.w3.org/2000/svg">
<path d="M3.36584 47.675L4.52766 47.5734C4.58269 48.039 4.70966 48.4221 4.90859 48.7226C5.11175 49.0188 5.42496 49.2601 5.84821 49.4463C6.27146 49.6283 6.74762 49.7193 7.27669 49.7193C7.7465 49.7193 8.16129 49.6495 8.52105 49.5098C8.88082 49.3701 9.14747 49.1797 9.321 48.9384C9.49877 48.6929 9.58765 48.4263 9.58765 48.1385C9.58765 47.8464 9.503 47.5925 9.3337 47.3766C9.1644 47.1565 8.88505 46.9724 8.49566 46.8243C8.24594 46.7269 7.69359 46.5767 6.83862 46.3735C5.98365 46.1661 5.38475 45.9714 5.04192 45.7894C4.5975 45.5566 4.26525 45.2688 4.04516 44.926C3.8293 44.5789 3.72137 44.1916 3.72137 43.7642C3.72137 43.2944 3.85469 42.8563 4.12134 42.45C4.38799 42.0394 4.77738 41.7283 5.28952 41.5167C5.80165 41.3051 6.37093 41.1993 6.99734 41.1993C7.68725 41.1993 8.29461 41.3114 8.81945 41.5357C9.34851 41.7558 9.75483 42.0817 10.0384 42.5135C10.322 42.9452 10.4744 43.434 10.4955 43.98L9.31465 44.0689C9.25116 43.4806 9.0353 43.0362 8.66708 42.7357C8.30308 42.4351 7.76343 42.2849 7.04813 42.2849C6.30321 42.2849 5.75933 42.4225 5.41649 42.6976C5.07789 42.9684 4.90859 43.2965 4.90859 43.6816C4.90859 44.016 5.02922 44.2911 5.27047 44.507C5.50749 44.7228 6.12544 44.945 7.12432 45.1736C8.12743 45.3979 8.81521 45.5947 9.18768 45.764C9.72944 46.0138 10.1294 46.3312 10.3876 46.7164C10.6458 47.0973 10.7749 47.5375 10.7749 48.0369C10.7749 48.5321 10.6331 48.9998 10.3495 49.44C10.0659 49.8759 9.65749 50.2166 9.12419 50.4621C8.59512 50.7034 7.99834 50.824 7.33383 50.824C6.49156 50.824 5.78472 50.7013 5.21333 50.4558C4.64617 50.2103 4.19964 49.8421 3.87374 49.3511C3.55207 48.8559 3.38277 48.2972 3.36584 47.675ZM13.6115 50.6653V41.358H14.7543V44.6974C15.2876 44.0795 15.9606 43.7705 16.7732 43.7705C17.2726 43.7705 17.7065 43.87 18.0747 44.0689C18.4429 44.2636 18.7054 44.5345 18.862 44.8816C19.0228 45.2286 19.1032 45.7323 19.1032 46.3926V50.6653H17.9604V46.3926C17.9604 45.8212 17.8356 45.4064 17.5859 45.1482C17.3404 44.8858 16.9912 44.7546 16.5383 44.7546C16.1997 44.7546 15.8801 44.8435 15.5796 45.0212C15.2834 45.1948 15.0717 45.4318 14.9448 45.7323C14.8178 46.0328 14.7543 46.4476 14.7543 46.9767V50.6653H13.6115ZM26.7649 48.494L27.9458 48.64C27.7596 49.3299 27.4146 49.8654 26.911 50.2463C26.4073 50.6272 25.7639 50.8177 24.9809 50.8177C23.9947 50.8177 23.2117 50.515 22.6319 49.9098C22.0563 49.3003 21.7684 48.4475 21.7684 47.3512C21.7684 46.2169 22.0605 45.3365 22.6446 44.7101C23.2287 44.0837 23.9863 43.7705 24.9174 43.7705C25.819 43.7705 26.5554 44.0774 27.1268 44.6911C27.6982 45.3048 27.9839 46.1682 27.9839 47.2814C27.9839 47.3491 27.9818 47.4507 27.9776 47.5861H22.9493C22.9916 48.3268 23.2011 48.894 23.5778 49.2876C23.9545 49.6812 24.4243 49.878 24.9873 49.878C25.4063 49.878 25.7639 49.768 26.0602 49.5479C26.3565 49.3278 26.5914 48.9765 26.7649 48.494ZM23.0128 46.6465H26.7776C26.7268 46.0794 26.5829 45.654 26.3459 45.3704C25.9819 44.9302 25.51 44.7101 24.9301 44.7101C24.4053 44.7101 23.963 44.8858 23.6032 45.2371C23.2477 45.5884 23.0509 46.0582 23.0128 46.6465ZM30.6618 50.6653V41.358H31.8046V50.6653H30.6618ZM37.3776 49.6431L37.5426 50.6526C37.221 50.7203 36.9332 50.7542 36.6792 50.7542C36.2644 50.7542 35.9427 50.6886 35.7142 50.5574C35.4856 50.4262 35.3248 50.2547 35.2317 50.0431C35.1386 49.8273 35.092 49.3765 35.092 48.6908V44.8117H34.254V43.9229H35.092V42.2532L36.2284 41.5675V43.9229H37.3776V44.8117H36.2284V48.7543C36.2284 49.0802 36.2475 49.2897 36.2856 49.3828C36.3279 49.476 36.3935 49.55 36.4824 49.605C36.5755 49.6601 36.7067 49.6876 36.876 49.6876C37.003 49.6876 37.1702 49.6728 37.3776 49.6431ZM44.4171 48.494L45.598 48.64C45.4118 49.3299 45.0668 49.8654 44.5631 50.2463C44.0595 50.6272 43.4161 50.8177 42.6331 50.8177C41.6469 50.8177 40.8639 50.515 40.284 49.9098C39.7084 49.3003 39.4206 48.4475 39.4206 47.3512C39.4206 46.2169 39.7127 45.3365 40.2967 44.7101C40.8808 44.0837 41.6385 43.7705 42.5696 43.7705C43.4711 43.7705 44.2076 44.0774 44.779 44.6911C45.3504 45.3048 45.6361 46.1682 45.6361 47.2814C45.6361 47.3491 45.634 47.4507 45.6297 47.5861H40.6015C40.6438 48.3268 40.8533 48.894 41.23 49.2876C41.6067 49.6812 42.0765 49.878 42.6395 49.878C43.0585 49.878 43.4161 49.768 43.7124 49.5479C44.0087 49.3278 44.2436 48.9765 44.4171 48.494ZM40.665 46.6465H44.4298C44.379 46.0794 44.2351 45.654 43.9981 45.3704C43.6341 44.9302 43.1622 44.7101 42.5823 44.7101C42.0575 44.7101 41.6152 44.8858 41.2554 45.2371C40.8999 45.5884 40.7031 46.0582 40.665 46.6465ZM48.3267 50.6653V43.9229H49.3552V44.945C49.6176 44.4668 49.8589 44.1514 50.079 43.9991C50.3033 43.8467 50.5488 43.7705 50.8154 43.7705C51.2006 43.7705 51.5921 43.8933 51.9899 44.1387L51.5963 45.199C51.317 45.0339 51.0376 44.9514 50.7583 44.9514C50.5086 44.9514 50.2842 45.0276 50.0853 45.1799C49.8864 45.3281 49.7446 45.5355 49.6599 45.8021C49.533 46.2084 49.4695 46.6529 49.4695 47.1354V50.6653H48.3267ZM59.1615 50.6653V44.8117H58.1521V43.9229H59.1615V43.2055C59.1615 42.7526 59.2018 42.4161 59.2822 42.196C59.3922 41.8997 59.5848 41.6606 59.8599 41.4786C60.1393 41.2924 60.5286 41.1993 61.0281 41.1993C61.3498 41.1993 61.7053 41.2373 62.0947 41.3135L61.9233 42.3103C61.6862 42.268 61.4619 42.2468 61.2503 42.2468C60.9032 42.2468 60.6577 42.3209 60.5138 42.469C60.3699 42.6171 60.298 42.8944 60.298 43.3007V43.9229H61.6122V44.8117H60.298V50.6653H59.1615ZM63.3822 47.2941C63.3822 46.0455 63.7293 45.1207 64.4234 44.5197C65.0033 44.0202 65.7101 43.7705 66.5439 43.7705C67.4708 43.7705 68.2285 44.0753 68.8168 44.6847C69.4051 45.29 69.6993 46.128 69.6993 47.1989C69.6993 48.0665 69.5681 48.7501 69.3056 49.2495C69.0475 49.7447 68.6686 50.1299 68.1692 50.405C67.674 50.6801 67.1322 50.8177 66.5439 50.8177C65.6001 50.8177 64.8361 50.515 64.252 49.9098C63.6721 49.3045 63.3822 48.4326 63.3822 47.2941ZM64.5567 47.2941C64.5567 48.1575 64.7451 48.8051 65.1218 49.2368C65.4985 49.6643 65.9725 49.878 66.5439 49.878C67.1111 49.878 67.583 49.6622 67.9597 49.2305C68.3364 48.7988 68.5247 48.1406 68.5247 47.256C68.5247 46.4222 68.3343 45.7915 67.9533 45.3641C67.5767 44.9323 67.1068 44.7165 66.5439 44.7165C65.9725 44.7165 65.4985 44.9302 65.1218 45.3577C64.7451 45.7852 64.5567 46.4307 64.5567 47.2941ZM72.3327 50.6653V43.9229H73.3612V44.945C73.6237 44.4668 73.8649 44.1514 74.085 43.9991C74.3093 43.8467 74.5548 43.7705 74.8215 43.7705C75.2066 43.7705 75.5981 43.8933 75.996 44.1387L75.6024 45.199C75.323 45.0339 75.0437 44.9514 74.7643 44.9514C74.5146 44.9514 74.2903 45.0276 74.0914 45.1799C73.8924 45.3281 73.7506 45.5355 73.666 45.8021C73.539 46.2084 73.4755 46.6529 73.4755 47.1354V50.6653H72.3327ZM82.8946 53.2493V43.9229H83.9358V44.799C84.1813 44.4562 84.4585 44.2001 84.7675 44.0308C85.0765 43.8573 85.451 43.7705 85.8912 43.7705C86.4668 43.7705 86.9747 43.9187 87.4149 44.2149C87.8551 44.5112 88.1874 44.9302 88.4117 45.472C88.636 46.0095 88.7482 46.6 88.7482 47.2433C88.7482 47.9332 88.6233 48.5554 88.3736 49.1098C88.1281 49.6601 87.7683 50.0833 87.2943 50.3796C86.8245 50.6716 86.3293 50.8177 85.8087 50.8177C85.4278 50.8177 85.0849 50.7373 84.7802 50.5764C84.4797 50.4156 84.2321 50.2124 84.0374 49.9669V53.2493H82.8946ZM83.9294 47.3322C83.9294 48.1999 84.1051 48.8411 84.4564 49.2559C84.8077 49.6707 85.2331 49.878 85.7325 49.878C86.2404 49.878 86.6742 49.6643 87.034 49.2368C87.398 48.8051 87.58 48.1385 87.58 47.237C87.58 46.3777 87.4022 45.7344 87.0467 45.3069C86.6954 44.8794 86.2743 44.6657 85.7833 44.6657C85.2965 44.6657 84.8648 44.8942 84.4881 45.3514C84.1157 45.8042 83.9294 46.4645 83.9294 47.3322ZM96.048 48.494L97.2289 48.64C97.0427 49.3299 96.6977 49.8654 96.194 50.2463C95.6904 50.6272 95.047 50.8177 94.264 50.8177C93.2778 50.8177 92.4948 50.515 91.915 49.9098C91.3393 49.3003 91.0515 48.4475 91.0515 47.3512C91.0515 46.2169 91.3436 45.3365 91.9276 44.7101C92.5117 44.0837 93.2694 43.7705 94.2005 43.7705C95.102 43.7705 95.8385 44.0774 96.4099 44.6911C96.9813 45.3048 97.267 46.1682 97.267 47.2814C97.267 47.3491 97.2649 47.4507 97.2606 47.5861H92.2324C92.2747 48.3268 92.4842 48.894 92.8609 49.2876C93.2376 49.6812 93.7074 49.878 94.2704 49.878C94.6894 49.878 95.047 49.768 95.3433 49.5479C95.6396 49.3278 95.8745 48.9765 96.048 48.494ZM92.2959 46.6465H96.0607C96.0099 46.0794 95.866 45.654 95.629 45.3704C95.265 44.9302 94.7931 44.7101 94.2132 44.7101C93.6884 44.7101 93.2461 44.8858 92.8863 45.2371C92.5308 45.5884 92.334 46.0582 92.2959 46.6465ZM102.465 49.6431L102.63 50.6526C102.309 50.7203 102.021 50.7542 101.767 50.7542C101.352 50.7542 101.031 50.6886 100.802 50.5574C100.573 50.4262 100.413 50.2547 100.319 50.0431C100.226 49.8273 100.18 49.3765 100.18 48.6908V44.8117H99.3418V43.9229H100.18V42.2532L101.316 41.5675V43.9229H102.465V44.8117H101.316V48.7543C101.316 49.0802 101.335 49.2897 101.373 49.3828C101.416 49.476 101.481 49.55 101.57 49.605C101.663 49.6601 101.795 49.6876 101.964 49.6876C102.091 49.6876 102.258 49.6728 102.465 49.6431ZM104.432 48.6527L105.562 48.475C105.626 48.9278 105.801 49.2749 106.089 49.5162C106.381 49.7574 106.788 49.878 107.308 49.878C107.833 49.878 108.222 49.7722 108.476 49.5606C108.73 49.3447 108.857 49.0929 108.857 48.8051C108.857 48.5469 108.745 48.3438 108.521 48.1956C108.364 48.094 107.975 47.9649 107.353 47.8083C106.515 47.5967 105.933 47.4147 105.607 47.2623C105.285 47.1057 105.04 46.892 104.87 46.6211C104.705 46.346 104.623 46.0434 104.623 45.7132C104.623 45.4127 104.69 45.1355 104.826 44.8816C104.966 44.6234 105.154 44.4096 105.391 44.2403C105.569 44.1091 105.81 43.9991 106.115 43.9102C106.424 43.8171 106.754 43.7705 107.105 43.7705C107.634 43.7705 108.098 43.8467 108.495 43.9991C108.898 44.1514 109.194 44.3588 109.384 44.6212C109.575 44.8794 109.706 45.2265 109.778 45.6625L108.661 45.8148C108.61 45.4678 108.462 45.1969 108.216 45.0022C107.975 44.8075 107.632 44.7101 107.188 44.7101C106.663 44.7101 106.288 44.7969 106.064 44.9704C105.84 45.144 105.727 45.3471 105.727 45.5799C105.727 45.7281 105.774 45.8614 105.867 45.9799C105.96 46.1026 106.106 46.2042 106.305 46.2846C106.419 46.327 106.756 46.4243 107.315 46.5767C108.123 46.7925 108.686 46.9703 109.003 47.11C109.325 47.2454 109.577 47.4443 109.759 47.7068C109.941 47.9692 110.032 48.2951 110.032 48.6845C110.032 49.0654 109.92 49.4252 109.695 49.7638C109.475 50.0981 109.156 50.3584 108.737 50.5447C108.318 50.7267 107.844 50.8177 107.315 50.8177C106.438 50.8177 105.77 50.6357 105.308 50.2717C104.851 49.9077 104.559 49.368 104.432 48.6527ZM117.616 42.6722V41.358H118.759V42.6722H117.616ZM117.616 50.6653V43.9229H118.759V50.6653H117.616ZM121.805 50.6653V43.9229H122.834V44.8816C123.329 44.1409 124.044 43.7705 124.979 43.7705C125.386 43.7705 125.758 43.8446 126.097 43.9927C126.44 44.1366 126.696 44.3271 126.865 44.5641C127.034 44.8011 127.153 45.0826 127.221 45.4085C127.263 45.6201 127.284 45.9905 127.284 46.5195V50.6653H126.141V46.564C126.141 46.0984 126.097 45.7513 126.008 45.5228C125.919 45.29 125.76 45.1059 125.532 44.9704C125.307 44.8308 125.043 44.7609 124.738 44.7609C124.251 44.7609 123.83 44.9154 123.475 45.2244C123.123 45.5334 122.948 46.1196 122.948 46.983V50.6653H121.805ZM135.357 50.6653V41.358H138.849C139.56 41.358 140.129 41.4532 140.557 41.6437C140.989 41.8299 141.325 42.1198 141.566 42.5135C141.812 42.9028 141.935 43.3113 141.935 43.7388C141.935 44.1366 141.827 44.5112 141.611 44.8625C141.395 45.2138 141.069 45.4974 140.633 45.7132C141.196 45.8783 141.628 46.1598 141.928 46.5576C142.233 46.9555 142.385 47.4253 142.385 47.9671C142.385 48.403 142.292 48.8093 142.106 49.186C141.924 49.5585 141.698 49.8463 141.427 50.0495C141.156 50.2526 140.815 50.4071 140.404 50.5129C139.998 50.6145 139.499 50.6653 138.906 50.6653H135.357ZM136.589 45.2688H138.601C139.147 45.2688 139.539 45.2328 139.776 45.1609C140.089 45.0678 140.324 44.9133 140.481 44.6974C140.641 44.4816 140.722 44.2107 140.722 43.8848C140.722 43.5758 140.648 43.3049 140.5 43.0721C140.352 42.8351 140.14 42.6743 139.865 42.5896C139.59 42.5008 139.118 42.4563 138.449 42.4563H136.589V45.2688ZM136.589 49.567H138.906C139.304 49.567 139.583 49.5521 139.744 49.5225C140.028 49.4717 140.265 49.3871 140.455 49.2686C140.646 49.1501 140.802 48.9786 140.925 48.7543C141.048 48.5258 141.109 48.2633 141.109 47.9671C141.109 47.62 141.02 47.3195 140.843 47.0655C140.665 46.8073 140.417 46.6275 140.1 46.5259C139.787 46.4201 139.334 46.3672 138.741 46.3672H136.589V49.567ZM144.809 47.2941C144.809 46.0455 145.156 45.1207 145.85 44.5197C146.43 44.0202 147.137 43.7705 147.971 43.7705C148.898 43.7705 149.656 44.0753 150.244 44.6847C150.832 45.29 151.126 46.128 151.126 47.1989C151.126 48.0665 150.995 48.7501 150.733 49.2495C150.474 49.7447 150.096 50.1299 149.596 50.405C149.101 50.6801 148.559 50.8177 147.971 50.8177C147.027 50.8177 146.263 50.515 145.679 49.9098C145.099 49.3045 144.809 48.4326 144.809 47.2941ZM145.984 47.2941C145.984 48.1575 146.172 48.8051 146.549 49.2368C146.926 49.6643 147.4 49.878 147.971 49.878C148.538 49.878 149.01 49.6622 149.387 49.2305C149.763 48.7988 149.952 48.1406 149.952 47.256C149.952 46.4222 149.761 45.7915 149.38 45.3641C149.004 44.9323 148.534 44.7165 147.971 44.7165C147.4 44.7165 146.926 44.9302 146.549 45.3577C146.172 45.7852 145.984 46.4307 145.984 47.2941ZM153.315 48.6527L154.445 48.475C154.509 48.9278 154.685 49.2749 154.972 49.5162C155.264 49.7574 155.671 49.878 156.191 49.878C156.716 49.878 157.106 49.7722 157.36 49.5606C157.614 49.3447 157.74 49.0929 157.74 48.8051C157.74 48.5469 157.628 48.3438 157.404 48.1956C157.247 48.094 156.858 47.9649 156.236 47.8083C155.398 47.5967 154.816 47.4147 154.49 47.2623C154.168 47.1057 153.923 46.892 153.753 46.6211C153.588 46.346 153.506 46.0434 153.506 45.7132C153.506 45.4127 153.574 45.1355 153.709 44.8816C153.849 44.6234 154.037 44.4096 154.274 44.2403C154.452 44.1091 154.693 43.9991 154.998 43.9102C155.307 43.8171 155.637 43.7705 155.988 43.7705C156.517 43.7705 156.981 43.8467 157.379 43.9991C157.781 44.1514 158.077 44.3588 158.267 44.6212C158.458 44.8794 158.589 45.2265 158.661 45.6625L157.544 45.8148C157.493 45.4678 157.345 45.1969 157.099 45.0022C156.858 44.8075 156.515 44.7101 156.071 44.7101C155.546 44.7101 155.171 44.7969 154.947 44.9704C154.723 45.144 154.611 45.3471 154.611 45.5799C154.611 45.7281 154.657 45.8614 154.75 45.9799C154.843 46.1026 154.989 46.2042 155.188 46.2846C155.303 46.327 155.639 46.4243 156.198 46.5767C157.006 46.7925 157.569 46.9703 157.887 47.11C158.208 47.2454 158.46 47.4443 158.642 47.7068C158.824 47.9692 158.915 48.2951 158.915 48.6845C158.915 49.0654 158.803 49.4252 158.579 49.7638C158.358 50.0981 158.039 50.3584 157.62 50.5447C157.201 50.7267 156.727 50.8177 156.198 50.8177C155.322 50.8177 154.653 50.6357 154.192 50.2717C153.734 49.9077 153.442 49.368 153.315 48.6527ZM164.069 49.6431L164.234 50.6526C163.912 50.7203 163.625 50.7542 163.371 50.7542C162.956 50.7542 162.634 50.6886 162.406 50.5574C162.177 50.4262 162.016 50.2547 161.923 50.0431C161.83 49.8273 161.783 49.3765 161.783 48.6908V44.8117H160.945V43.9229H161.783V42.2532L162.92 41.5675V43.9229H164.069V44.8117H162.92V48.7543C162.92 49.0802 162.939 49.2897 162.977 49.3828C163.019 49.476 163.085 49.55 163.174 49.605C163.267 49.6601 163.398 49.6876 163.567 49.6876C163.694 49.6876 163.862 49.6728 164.069 49.6431ZM166.068 47.2941C166.068 46.0455 166.415 45.1207 167.109 44.5197C167.689 44.0202 168.395 43.7705 169.229 43.7705C170.156 43.7705 170.914 44.0753 171.502 44.6847C172.09 45.29 172.385 46.128 172.385 47.1989C172.385 48.0665 172.253 48.7501 171.991 49.2495C171.733 49.7447 171.354 50.1299 170.855 50.405C170.359 50.6801 169.818 50.8177 169.229 50.8177C168.285 50.8177 167.521 50.515 166.937 49.9098C166.357 49.3045 166.068 48.4326 166.068 47.2941ZM167.242 47.2941C167.242 48.1575 167.43 48.8051 167.807 49.2368C168.184 49.6643 168.658 49.878 169.229 49.878C169.796 49.878 170.268 49.6622 170.645 49.2305C171.022 48.7988 171.21 48.1406 171.21 47.256C171.21 46.4222 171.02 45.7915 170.639 45.3641C170.262 44.9323 169.792 44.7165 169.229 44.7165C168.658 44.7165 168.184 44.9302 167.807 45.3577C167.43 45.7852 167.242 46.4307 167.242 47.2941ZM175.031 50.6653V43.9229H176.059V44.8816C176.554 44.1409 177.27 43.7705 178.205 43.7705C178.611 43.7705 178.984 43.8446 179.323 43.9927C179.665 44.1366 179.921 44.3271 180.091 44.5641C180.26 44.8011 180.379 45.0826 180.446 45.4085C180.489 45.6201 180.51 45.9905 180.51 46.5195V50.6653H179.367V46.564C179.367 46.0984 179.323 45.7513 179.234 45.5228C179.145 45.29 178.986 45.1059 178.758 44.9704C178.533 44.8308 178.269 44.7609 177.964 44.7609C177.477 44.7609 177.056 44.9154 176.701 45.2244C176.349 45.5334 176.174 46.1196 176.174 46.983V50.6653H175.031Z" fill="white"/>
<path d="M10.0799 23.176C8.75677 23.176 7.48571 22.9156 6.26674 22.3946C5.05819 21.8737 3.98509 21.1236 3.04742 20.1442C2.12017 19.1649 1.38045 17.972 0.828273 16.5655C0.276091 15.1485 0 13.5545 0 11.7834C0 10.0122 0.270882 8.40775 0.812645 6.96999C1.35441 5.52182 2.10454 4.27681 3.06305 3.23495C4.01113 2.20352 5.13112 1.4065 6.42302 0.843901C7.71492 0.2813 9.09537 0 10.5644 0C11.6583 0 12.6481 0.135441 13.5337 0.406323C14.4192 0.677204 15.2631 1.05748 16.0654 1.54715L16.7061 0.484462H17.9563L18.097 8.39212H16.8155C16.6488 7.62115 16.3988 6.78767 16.0654 5.89168C15.732 4.98527 15.3413 4.2195 14.8933 3.59439C14.3932 2.88593 13.7993 2.33375 13.1117 1.93785C12.4241 1.53152 11.6375 1.32836 10.7519 1.32836C9.74132 1.32836 8.79845 1.55236 7.92329 2.00036C7.05855 2.44835 6.30842 3.10993 5.67289 3.98509C5.06861 4.82899 4.59457 5.9021 4.25076 7.20441C3.90695 8.50673 3.73504 9.96011 3.73504 11.5646C3.73504 12.9815 3.91216 14.2838 4.26639 15.4715C4.63104 16.6488 5.14675 17.6854 5.81354 18.5814C6.48032 19.467 7.26692 20.1599 8.17333 20.6599C9.09016 21.16 10.1112 21.4101 11.2364 21.4101C12.0803 21.4101 12.8565 21.2798 13.5649 21.0194C14.2734 20.7485 14.8881 20.3943 15.409 19.9567C15.9299 19.4983 16.3883 18.9773 16.7842 18.3939C17.1802 17.8105 17.5031 17.1749 17.7532 16.4873L18.9253 17.0499C18.0293 19.2482 16.8415 20.8214 15.3621 21.7695C13.8827 22.7072 12.122 23.176 10.0799 23.176ZM37.4111 14.7995C37.4111 15.883 37.2392 16.9509 36.8953 18.0032C36.5515 19.0451 36.0619 19.9306 35.4263 20.6599C34.7074 21.4934 33.874 22.1133 32.9259 22.5196C31.9778 22.926 30.9151 23.1291 29.7378 23.1291C28.7585 23.1291 27.826 22.9468 26.9404 22.5822C26.0549 22.2071 25.2683 21.6653 24.5806 20.9569C23.9034 20.2588 23.3617 19.4097 22.9553 18.4095C22.5594 17.3989 22.3615 16.2685 22.3615 15.0183C22.3615 12.6116 23.0595 10.6425 24.4556 9.111C25.8621 7.57948 27.701 6.81372 29.9722 6.81372C32.1289 6.81372 33.9052 7.54301 35.3013 9.00161C36.7078 10.4498 37.4111 12.3824 37.4111 14.7995ZM34.1761 14.8308C34.1761 14.0494 34.098 13.2263 33.9417 12.3616C33.7854 11.4864 33.551 10.7467 33.2384 10.1424C32.905 9.49649 32.4675 8.98077 31.9257 8.59528C31.3839 8.19938 30.7224 8.00143 29.941 8.00143C29.1387 8.00143 28.4511 8.19938 27.8781 8.59528C27.3155 8.99119 26.8571 9.53295 26.5029 10.2206C26.1695 10.8561 25.935 11.5802 25.7996 12.3928C25.6642 13.2055 25.5964 13.9921 25.5964 14.7526C25.5964 15.7528 25.6746 16.6801 25.8309 17.5344C25.9976 18.3783 26.258 19.1336 26.6123 19.8004C26.9665 20.4672 27.4093 20.9933 27.9406 21.3788C28.4824 21.7539 29.1492 21.9414 29.941 21.9414C31.2433 21.9414 32.2747 21.3111 33.0353 20.0505C33.7958 18.7898 34.1761 17.0499 34.1761 14.8308ZM53.7715 22.6603H41.3005V21.832L50.0208 8.51715H47.8642C46.9578 8.51715 46.2493 8.53277 45.7388 8.56403C45.2283 8.59528 44.7595 8.69947 44.3323 8.87659C44.0406 8.99119 43.7645 9.31937 43.504 9.86114C43.254 10.4029 43.0352 11.1114 42.8477 11.9865H41.8944V7.25129H53.6777V7.89203L44.8168 21.3944C45.1918 21.4049 45.6034 21.4153 46.0513 21.4257C46.4993 21.4257 46.9838 21.4257 47.5047 21.4257C47.9215 21.4257 48.3538 21.4205 48.8018 21.4101C49.2603 21.3997 49.8437 21.3736 50.5522 21.3319C50.9689 21.3111 51.2814 21.1704 51.4898 20.91C51.7086 20.6495 51.8753 20.3526 51.9899 20.0192C52.1045 19.7171 52.24 19.3003 52.3962 18.769C52.5629 18.2376 52.7088 17.7219 52.8338 17.2218H53.7715V22.6603ZM56.5357 27.6924C56.5357 27.1715 56.6764 26.7444 56.9577 26.411C57.2494 26.088 57.6088 25.9265 58.036 25.9265C58.3694 25.9265 58.6559 25.989 58.8955 26.114C59.1351 26.2391 59.3487 26.4005 59.5363 26.5985C59.6925 26.7548 59.8592 26.9684 60.0363 27.2392C60.2135 27.5101 60.3541 27.7341 60.4583 27.9112C60.9792 27.6299 61.5991 26.8954 62.318 25.7077C63.0473 24.52 63.5734 23.4782 63.8964 22.5822C62.9066 20.113 62.0107 17.9042 61.2084 15.956C60.4062 14.0077 59.5675 11.9917 58.6924 9.90802C58.4944 9.42877 58.161 9.05891 57.6922 8.79845C57.2233 8.52756 56.7545 8.35566 56.2857 8.28273V7.25129H63.3182V8.34524C63.0056 8.35566 62.6306 8.42338 62.193 8.5484C61.7554 8.66301 61.5366 8.79845 61.5366 8.95472C61.5366 9.01724 61.5574 9.12142 61.5991 9.26728C61.6512 9.41314 61.7085 9.56421 61.771 9.72049C62.1669 10.7519 62.7712 12.2418 63.5839 14.19C64.3965 16.1279 65.0268 17.6802 65.4748 18.8471C65.9436 17.7323 66.4281 16.5811 66.9282 15.3934C67.4387 14.1952 68.0065 12.7835 68.6316 11.1582C68.7046 10.9603 68.8087 10.6894 68.9442 10.3456C69.0796 9.99137 69.1473 9.68923 69.1473 9.43919C69.1473 9.1683 68.9077 8.91826 68.4285 8.68905C67.9596 8.44943 67.5116 8.30357 67.0845 8.25147V7.25129H72.8042V8.22022C72.4917 8.27231 72.0802 8.45463 71.5697 8.76719C71.0591 9.06933 70.6789 9.5017 70.4288 10.0643C69.189 12.9398 68.0847 15.5601 67.1157 17.9251C66.1572 20.2901 65.4279 22.03 64.9278 23.1448C64.2715 24.6034 63.6828 25.739 63.1619 26.5516C62.6514 27.3747 62.1513 28.0206 61.6616 28.4895C61.1824 28.927 60.7448 29.2188 60.3489 29.3646C59.9634 29.5209 59.5623 29.599 59.1456 29.599C58.3329 29.599 57.6922 29.4063 57.2233 29.0208C56.7649 28.6353 56.5357 28.1925 56.5357 27.6924ZM108.385 22.6603H99.1802V21.5507C99.4303 21.5299 99.7897 21.4986 100.259 21.457C100.738 21.4153 101.066 21.3528 101.243 21.2694C101.556 21.1444 101.785 20.9569 101.931 20.7068C102.077 20.4464 102.149 20.113 102.149 19.7066V11.8146H91.7258V19.5347C91.7258 19.8994 91.7831 20.2067 91.8977 20.4568C92.0227 20.7068 92.2623 20.9256 92.6165 21.1131C92.7937 21.2069 93.1062 21.3007 93.5542 21.3944C94.0126 21.4882 94.3721 21.5403 94.6325 21.5507V22.6603H85.4278V21.5507C85.6778 21.5299 86.0372 21.4986 86.5061 21.457C86.9853 21.4153 87.3135 21.3528 87.4906 21.2694C87.8032 21.1444 88.0324 20.9569 88.1782 20.7068C88.3241 20.4464 88.397 20.113 88.397 19.7066V3.70379C88.397 3.37039 88.3293 3.06826 88.1939 2.79737C88.0584 2.51607 87.824 2.29729 87.4906 2.14101C87.2093 2.00557 86.8655 1.88575 86.4592 1.78157C86.0633 1.67738 85.7195 1.61487 85.4278 1.59403V0.484462H94.6325V1.59403C94.3408 1.60445 93.9814 1.65134 93.5542 1.73468C93.1375 1.81803 92.8249 1.89617 92.6165 1.9691C92.2623 2.09412 92.0227 2.30249 91.8977 2.59421C91.7831 2.88593 91.7258 3.2037 91.7258 3.54751V10.4237H102.149V3.70379C102.149 3.37039 102.082 3.06826 101.946 2.79737C101.811 2.51607 101.576 2.29729 101.243 2.14101C100.962 2.00557 100.618 1.88575 100.212 1.78157C99.8157 1.67738 99.4719 1.61487 99.1802 1.59403V0.484462H108.385V1.59403C108.093 1.60445 107.734 1.65134 107.307 1.73468C106.89 1.81803 106.577 1.89617 106.369 1.9691C106.015 2.09412 105.775 2.30249 105.65 2.59421C105.536 2.88593 105.478 3.2037 105.478 3.54751V19.5347C105.478 19.8994 105.536 20.2067 105.65 20.4568C105.775 20.7068 106.015 20.9256 106.369 21.1131C106.546 21.2069 106.859 21.3007 107.307 21.3944C107.765 21.4882 108.125 21.5403 108.385 21.5507V22.6603ZM128.058 14.7995C128.058 15.883 127.887 16.9509 127.543 18.0032C127.199 19.0451 126.709 19.9306 126.074 20.6599C125.355 21.4934 124.521 22.1133 123.573 22.5196C122.625 22.926 121.563 23.1291 120.385 23.1291C119.406 23.1291 118.473 22.9468 117.588 22.5822C116.702 22.2071 115.916 21.6653 115.228 20.9569C114.551 20.2588 114.009 19.4097 113.603 18.4095C113.207 17.3989 113.009 16.2685 113.009 15.0183C113.009 12.6116 113.707 10.6425 115.103 9.111C116.51 7.57948 118.348 6.81372 120.62 6.81372C122.776 6.81372 124.553 7.54301 125.949 9.00161C127.355 10.4498 128.058 12.3824 128.058 14.7995ZM124.824 14.8308C124.824 14.0494 124.745 13.2263 124.589 12.3616C124.433 11.4864 124.198 10.7467 123.886 10.1424C123.552 9.49649 123.115 8.98077 122.573 8.59528C122.031 8.19938 121.37 8.00143 120.588 8.00143C119.786 8.00143 119.099 8.19938 118.526 8.59528C117.963 8.99119 117.505 9.53295 117.15 10.2206C116.817 10.8561 116.582 11.5802 116.447 12.3928C116.312 13.2055 116.244 13.9921 116.244 14.7526C116.244 15.7528 116.322 16.6801 116.478 17.5344C116.645 18.3783 116.905 19.1336 117.26 19.8004C117.614 20.4672 118.057 20.9933 118.588 21.3788C119.13 21.7539 119.797 21.9414 120.588 21.9414C121.891 21.9414 122.922 21.3111 123.683 20.0505C124.443 18.7898 124.824 17.0499 124.824 14.8308ZM148.732 22.379L143.716 22.7228L143.481 22.504V20.5505H143.387C143.137 20.811 142.856 21.0923 142.544 21.3944C142.231 21.6862 141.872 21.9518 141.465 22.1915C140.996 22.4728 140.543 22.6863 140.106 22.8322C139.668 22.9781 139.048 23.051 138.246 23.051C136.881 23.051 135.839 22.6082 135.12 21.7226C134.412 20.8266 134.058 19.5295 134.058 17.8313V10.455C134.058 10.0799 133.985 9.76737 133.839 9.51732C133.703 9.25686 133.5 9.03286 133.229 8.84533C133.042 8.72031 132.807 8.63175 132.526 8.57966C132.245 8.51715 131.948 8.47547 131.635 8.45463V7.43883L136.777 7.06376L137.011 7.28255V17.9876C137.011 19.1024 137.261 19.9411 137.761 20.5037C138.262 21.0663 138.861 21.3476 139.559 21.3476C140.132 21.3476 140.642 21.259 141.09 21.0819C141.538 20.9048 141.913 20.6964 142.215 20.4568C142.497 20.238 142.742 20.0088 142.95 19.7692C143.169 19.5191 143.335 19.2899 143.45 19.0815V10.3456C143.45 10.0018 143.377 9.69965 143.231 9.43919C143.085 9.1683 142.882 8.9391 142.622 8.75156C142.434 8.62654 142.153 8.55361 141.778 8.53277C141.413 8.50152 141.002 8.47547 140.543 8.45463V7.43883L146.138 7.06376L146.372 7.28255V19.5191C146.372 19.8733 146.445 20.1755 146.591 20.4255C146.737 20.6756 146.94 20.8891 147.201 21.0663C147.388 21.1809 147.612 21.259 147.873 21.3007C148.133 21.3319 148.42 21.3528 148.732 21.3632V22.379ZM162.717 15.1121C163.144 15.4871 163.473 15.9195 163.702 16.4092C163.931 16.8989 164.046 17.4979 164.046 18.2064C164.046 19.6337 163.509 20.8006 162.436 21.707C161.373 22.6134 159.993 23.0666 158.295 23.0666C157.399 23.0666 156.57 22.9051 155.81 22.5822C155.06 22.2592 154.523 21.9623 154.2 21.6914L153.887 22.7072H152.715L152.559 17.3468H153.637C153.721 17.7532 153.898 18.2272 154.169 18.769C154.44 19.3107 154.768 19.8004 155.153 20.238C155.56 20.6964 156.044 21.0819 156.607 21.3944C157.18 21.707 157.82 21.8633 158.529 21.8633C159.529 21.8633 160.3 21.6393 160.842 21.1913C161.384 20.7329 161.654 20.0817 161.654 19.2378C161.654 18.8002 161.566 18.4252 161.389 18.1126C161.222 17.7896 160.972 17.5083 160.639 17.2687C160.295 17.0291 159.873 16.8155 159.373 16.628C158.873 16.43 158.315 16.2373 157.701 16.0497C157.211 15.9039 156.664 15.7059 156.06 15.4559C155.466 15.1954 154.955 14.8933 154.528 14.5495C154.07 14.1848 153.695 13.7368 153.403 13.2055C153.111 12.6741 152.965 12.049 152.965 11.3301C152.965 10.0695 153.434 9.00161 154.372 8.12645C155.31 7.25129 156.565 6.81372 158.138 6.81372C158.743 6.81372 159.357 6.89186 159.982 7.04813C160.618 7.20441 161.134 7.39195 161.529 7.61073L161.889 6.79809H163.014L163.249 11.7521H162.17C161.951 10.6477 161.477 9.75174 160.748 9.06412C160.029 8.36608 159.149 8.01706 158.107 8.01706C157.253 8.01706 156.581 8.23064 156.091 8.6578C155.601 9.08496 155.356 9.60067 155.356 10.2049C155.356 10.6738 155.435 11.0645 155.591 11.377C155.758 11.6896 156.002 11.9553 156.325 12.174C156.638 12.3824 157.029 12.5804 157.498 12.7679C157.977 12.945 158.565 13.1482 159.263 13.3774C159.951 13.5962 160.597 13.8514 161.201 14.1432C161.816 14.4349 162.321 14.7578 162.717 15.1121ZM182 19.0346C181.354 20.264 180.489 21.2434 179.406 21.9727C178.322 22.702 177.077 23.0666 175.671 23.0666C174.431 23.0666 173.342 22.8478 172.405 22.4103C171.477 21.9727 170.712 21.3788 170.107 20.6287C169.503 19.8785 169.05 19.0034 168.748 18.0032C168.456 17.003 168.31 15.9456 168.31 14.8308C168.31 13.8306 168.466 12.8513 168.779 11.8927C169.102 10.9238 169.571 10.0539 170.185 9.28291C170.779 8.54319 171.514 7.94934 172.389 7.50134C173.274 7.04292 174.264 6.81372 175.358 6.81372C176.483 6.81372 177.447 6.99083 178.249 7.34506C179.052 7.69929 179.703 8.18375 180.203 8.79845C180.682 9.38188 181.036 10.0695 181.265 10.8613C181.505 11.6531 181.625 12.5127 181.625 13.4399V14.4713H171.42C171.42 15.4819 171.514 16.3988 171.701 17.2218C171.899 18.0449 172.207 18.769 172.623 19.3941C173.03 19.9984 173.561 20.4776 174.217 20.8318C174.874 21.1757 175.655 21.3476 176.562 21.3476C177.489 21.3476 178.286 21.134 178.953 20.7068C179.63 20.2692 180.281 19.4879 180.906 18.3627L182 19.0346ZM178.546 13.1586C178.546 12.5752 178.494 11.9501 178.39 11.2833C178.296 10.6165 178.14 10.0591 177.921 9.61109C177.682 9.13184 177.353 8.74114 176.937 8.43901C176.52 8.13687 175.983 7.9858 175.327 7.9858C174.233 7.9858 173.321 8.44422 172.592 9.36105C171.873 10.2675 171.482 11.5333 171.42 13.1586H178.546Z" fill="#F1CDB3"/>
</svg>
